# ProBuilder 4.5.2
# https://unity3d.com/unity/features/worldbuilding/probuilder
# 25/04/2026 01:55:57

mtllib ./Spike.mtl
o Spike

g Spike
v -0.5 0.5 0.4999999
v 0.5 0.5 0.5
v -3.49156E-08 1.5 -8.42937E-08
v -0.5000001 0.5 -0.5000001
v 0.5 0.5 -0.5000001
v 0.5 -0.5 0.5
v 0.5 -0.5 -0.5000001
v 1.5 0 -9.483041E-08
v -0.5000001 -0.5 -0.5000001
v -3.49156E-08 -1.5 -8.42937E-08
v -0.5 -0.5 0.4999999
v -1.5 0 -7.375699E-08
v -4.545231E-08 0 -1.5
v -2.437888E-08 0 1.5

vt 0.4999999 0.2236068
vt -0.5000001 0.2236068
vt 3.491561E-08 1.341641
vt 0.5000002 0.2236068
vt -0.4999998 0.2236068
vt -0.2236068 0.5
vt -0.2236068 -0.5000001
vt -1.341641 -9.483041E-08
vt -0.2236068 0.5
vt 0.2236067 -0.5
vt 0.2236067 0.5
vt 1.341641 0
vt 0.2236068 0.5
vt -0.5000001 -0.2236067
vt 0.5 -0.2236067
vt -3.49156E-08 -1.341641
vt -0.4999998 -0.2236068
vt 0.5 -0.2236067

vn -1.06624E-07 0.4472136 0.8944272
vn -0.8944272 0.4472136 5.331201E-08
vn 0.8944272 0.4472136 0
vn 0 0.4472136 -0.8944272
vn 0.4472136 -0.8944272 0
vn 0.4472136 0 0.8944272
vn 0.4472136 0 -0.8944272
vn 0.4472136 0.8944272 0
vn 0 -0.4472136 -0.8944272
vn -0.8944272 -0.4472136 5.331201E-08
vn 0.8944272 -0.4472136 0
vn -1.06624E-07 -0.4472136 0.8944272
vn -0.4472136 -0.8944272 2.665601E-08
vn -0.4472137 0 -0.8944272
vn -0.4472135 0 0.8944272
vn -0.4472136 0.8944272 2.665601E-08
vn 0 -0.8944272 -0.4472136
vn 0.8944272 0 -0.4472136
vn -0.8944272 0 -0.4472136
vn 0 0.8944272 -0.4472136
vn -5.331201E-08 -0.8944271 0.4472136
vn -0.8944272 0 0.4472136
vn 0.8944272 0 0.4472136
vn -5.331201E-08 0.8944271 0.4472136

usemtl spiky
f 1/1/1 2/2/1 3/3/1
f 4/4/2 1/5/2 3/3/2
f 2/1/3 5/2/3 3/3/3
f 5/4/4 4/2/4 3/3/4
f 6/6/5 7/7/5 8/8/5
f 2/9/6 6/7/6 8/8/6
f 7/10/7 5/11/7 8/12/7
f 5/10/8 2/13/8 8/12/8
f 9/14/9 7/15/9 10/16/9
f 11/17/10 9/15/10 10/16/10
f 7/14/11 6/18/11 10/16/11
f 6/14/12 11/18/12 10/16/12
f 9/10/13 11/13/13 12/12/13
f 4/9/14 9/7/14 12/8/14
f 11/10/15 1/11/15 12/12/15
f 1/6/16 4/7/16 12/8/16
f 7/14/17 9/15/17 13/16/17
f 5/9/18 7/7/18 13/8/18
f 9/10/19 4/11/19 13/12/19
f 4/14/20 5/15/20 13/16/20
f 11/1/21 6/2/21 14/3/21
f 1/9/22 11/7/22 14/8/22
f 6/10/23 2/11/23 14/12/23
f 2/4/24 1/5/24 14/3/24

